<svg width="18" height="16" viewBox="0 0 18 16" fill="none" xmlns="http://www.w3.org/2000/svg">
<path d="M0 7.23083C0 7.53113 0.234375 7.81677 0.629883 7.81677C0.834961 7.81677 1.00342 7.70691 1.15723 7.5824L8.48877 1.43005C8.6499 1.28357 8.84766 1.28357 9.00879 1.43005L16.3403 7.5824C16.4868 7.70691 16.6553 7.81677 16.8604 7.81677C17.2046 7.81677 17.4829 7.60437 17.4829 7.25281C17.4829 7.03308 17.4097 6.8866 17.2559 6.75476L15.2051 5.02625V2.09656C15.2051 1.77429 15 1.56921 14.6777 1.56921H13.894C13.5791 1.56921 13.3667 1.77429 13.3667 2.09656V3.48083L9.63135 0.346069C9.08936 -0.115356 8.41553 -0.115356 7.86621 0.346069L0.234375 6.75476C0.0732422 6.8866 0 7.06238 0 7.23083ZM2.28516 13.7714C2.28516 14.7821 2.90039 15.3827 3.93311 15.3827H13.5645C14.5972 15.3827 15.2051 14.7821 15.2051 13.7714V7.96326L9.18457 2.91687C8.90625 2.6825 8.57666 2.68982 8.30566 2.91687L2.28516 7.96326V13.7714ZM10.6348 14.2035H6.85547V9.36218C6.85547 9.02527 7.08252 8.80554 7.41943 8.80554H10.0781C10.415 8.80554 10.6348 9.02527 10.6348 9.36218V14.2035Z" fill="black"/>
</svg>
