<svg width="26" height="21" viewBox="0 0 26 21" fill="none" xmlns="http://www.w3.org/2000/svg">
<path d="M17.3477 6.22656C18.6133 6.22656 19.6914 5.44141 20.1367 4.32812H24.0156C24.5898 4.32812 25.082 3.82422 25.082 3.21484C25.082 2.60547 24.6016 2.10156 24.0156 2.10156H20.1484C19.7031 0.988281 18.6133 0.203125 17.3477 0.203125C16.082 0.203125 14.9922 0.988281 14.5469 2.10156H2.01953C1.39844 2.10156 0.917969 2.60547 0.917969 3.21484C0.917969 3.82422 1.41016 4.32812 2.01953 4.32812H14.5469C14.9922 5.44141 16.082 6.22656 17.3477 6.22656ZM17.3477 4.64453C16.5508 4.64453 15.9062 4.01172 15.9062 3.21484C15.9062 2.39453 16.5508 1.77344 17.3477 1.77344C18.1562 1.77344 18.7773 2.39453 18.7773 3.21484C18.7773 4.01172 18.1562 4.64453 17.3477 4.64453ZM1.97266 9.40234C1.39844 9.40234 0.917969 9.89453 0.917969 10.5156C0.917969 11.1133 1.41016 11.6172 1.97266 11.6172H5.99219C6.42578 12.7305 7.51562 13.5273 8.79297 13.5273C10.0469 13.5273 11.1367 12.7305 11.582 11.6172H23.9805C24.5898 11.6172 25.082 11.125 25.082 10.5156C25.082 9.89453 24.6016 9.40234 23.9805 9.40234H11.582C11.1367 8.28906 10.0469 7.50391 8.79297 7.50391C7.52734 7.50391 6.4375 8.28906 5.99219 9.40234H1.97266ZM8.79297 11.9453C7.98438 11.9453 7.35156 11.3125 7.35156 10.5156C7.35156 9.69531 7.98438 9.07422 8.79297 9.07422C9.60156 9.07422 10.2227 9.69531 10.2227 10.5156C10.2227 11.3125 9.60156 11.9453 8.79297 11.9453ZM17.3477 20.8164C18.6133 20.8164 19.7031 20.0312 20.1484 18.918H24.0156C24.5898 18.918 25.082 18.4141 25.082 17.8047C25.082 17.1836 24.6016 16.6914 24.0156 16.6914H20.1367C19.7031 15.5781 18.6133 14.793 17.3477 14.793C16.082 14.793 14.9922 15.5781 14.5469 16.6914H2.01953C1.39844 16.6914 0.917969 17.1953 0.917969 17.8047C0.917969 18.4141 1.41016 18.918 2.01953 18.918H14.5469C14.9922 20.0312 16.082 20.8164 17.3477 20.8164ZM17.3477 19.2461C16.5508 19.2461 15.9062 18.6016 15.9062 17.8047C15.9062 16.9961 16.5508 16.3633 17.3477 16.3633C18.1562 16.3633 18.7773 16.9961 18.7773 17.8047C18.7773 18.6016 18.1562 19.2461 17.3477 19.2461Z" fill="white"/>
</svg>
